<?xml version="1.0" encoding="UTF-8"?><svg id="Layer_2" xmlns="http://www.w3.org/2000/svg" viewBox="0 0 115.77 47.16"><defs><style>.cls-1{fill:#fff;}</style></defs><g id="Layer_1-2"><g id="SiteLogo"><g><path class="cls-1" d="M56.36,6.44c-.22,1.09-.46,2.19-.72,3.31-.26,1.12-.51,2.24-.77,3.36,1.31,0,2.5,0,3.55,.02,1.06,.02,1.82,.02,2.3,.02,.16,0,.24,.09,.24,.26s-.08,.33-.24,.46c-.22,.13-.5,.28-.82,.46s-.66,.34-1.01,.48c-.35,.14-.69,.27-1.01,.38-.32,.11-.58,.18-.77,.22-.35,.06-.74,.1-1.15,.12-.42,.02-.98,.02-1.68,.02-.83,3.52-1.59,7.02-2.28,10.51-.69,3.49-1.54,6.99-2.57,10.51-.45,1.5-1.14,2.91-2.09,4.22-.94,1.31-2.04,2.45-3.29,3.41s-2.59,1.71-4.03,2.26-2.88,.77-4.32,.67c-.48-.03-.95-.13-1.42-.29-.46-.16-.86-.37-1.2-.62-.34-.26-.58-.57-.74-.94-.16-.37-.16-.78,0-1.22,.1-.32,.31-.66,.65-1.01,.34-.35,.74-.67,1.2-.96,.46-.29,.97-.55,1.51-.79,.54-.24,1.09-.42,1.63-.55,.48-.13,.86-.18,1.13-.14,.27,.03,.46,.1,.55,.22,.1,.11,.12,.24,.07,.38-.05,.14-.14,.26-.26,.36-.45,.35-.74,.8-.86,1.34-.13,.54-.12,1.04,.02,1.49,.14,.45,.42,.78,.82,1.01,.4,.22,.92,.18,1.56-.14,.45-.22,.83-.56,1.15-1.01,.32-.45,.61-.97,.86-1.56,.26-.59,.49-1.23,.7-1.92,.21-.69,.41-1.38,.6-2.09,.58-2.11,1.08-4.11,1.51-6,.43-1.89,.84-3.76,1.22-5.62,.38-1.86,.77-3.74,1.15-5.64,.38-1.9,.82-3.9,1.3-5.98-.83,.03-1.66,.06-2.47,.1-.82,.03-1.53,.18-2.14,.43-.19,.06-.32,0-.38-.22-.06-.21,.02-.38,.24-.5,.29-.19,.66-.4,1.1-.62,.45-.22,.92-.44,1.42-.65s.99-.39,1.49-.55c.5-.16,.94-.29,1.32-.38,.1-.45,.19-.9,.29-1.34,.1-.45,.21-.91,.34-1.39,.42-1.54,1.05-2.94,1.9-4.22,.85-1.28,1.86-2.38,3.02-3.29,1.17-.91,2.46-1.62,3.86-2.11C60.26,.2,61.72-.03,63.22,0c.54,.03,1.1,.12,1.68,.26,.58,.14,1.06,.36,1.46,.65,.4,.29,.68,.62,.84,1.01,.16,.38,.08,.83-.24,1.34-.16,.26-.42,.54-.77,.84-.35,.3-.74,.61-1.18,.91-.43,.3-.89,.58-1.37,.84s-.91,.45-1.3,.58c-.8,.26-1.32,.29-1.56,.1-.24-.19-.23-.42,.02-.67,.38-.42,.62-.93,.7-1.54,.08-.61,.02-1.15-.17-1.63-.19-.48-.52-.83-.98-1.06-.46-.22-1.05-.14-1.75,.24-.42,.22-.82,.68-1.22,1.37-.4,.69-.74,1.75-1.03,3.19Z"/><path class="cls-1" d="M72.06,40.75c.32,.26,.42,.47,.29,.65-.13,.17-.36,.29-.7,.36s-.72,.07-1.15,.02c-.43-.05-.81-.17-1.13-.36-2.11-1.31-3.73-3.04-4.85-5.18-1.12-2.14-1.81-4.49-2.06-7.03-.26-2.54-.09-5.2,.5-7.97,.59-2.77,1.56-5.43,2.9-7.99,1.34-2.56,3.03-4.92,5.06-7.08,2.03-2.16,4.38-3.91,7.03-5.26,.42-.22,.88-.38,1.39-.46,.51-.08,.94-.09,1.27-.02s.51,.21,.53,.43c.02,.22-.26,.53-.84,.91-2.08,1.34-3.93,3.05-5.54,5.11-1.62,2.06-2.98,4.3-4.08,6.72s-1.92,4.92-2.45,7.51c-.53,2.59-.75,5.11-.67,7.56,.08,2.45,.49,4.72,1.22,6.82,.74,2.1,1.82,3.85,3.26,5.26Z"/><path class="cls-1" d="M86.31,24.44c-.35-1.25-.77-2.59-1.25-4.03-.48-1.44-1.04-2.67-1.68-3.7-.35-.61-.78-.99-1.3-1.15-.51-.16-1.15-.14-1.92,.05-.19,.06-.33,0-.41-.22-.08-.21-.02-.36,.17-.46,.32-.16,.7-.33,1.15-.5,.45-.17,.9-.34,1.37-.5,.46-.16,.88-.29,1.25-.41,.37-.11,.65-.18,.84-.22,.64-.13,1.35-.11,2.14,.05,.78,.16,1.43,.66,1.94,1.49,.22,.35,.41,.67,.55,.96,.14,.29,.27,.58,.38,.86,.11,.29,.22,.59,.34,.91,.11,.32,.23,.69,.36,1.1,.32-.48,.59-.9,.82-1.27,.22-.37,.45-.72,.67-1.06,.22-.34,.46-.66,.72-.98,.26-.32,.56-.66,.91-1.01,.64-.64,1.24-1.06,1.8-1.25,.56-.19,1.13-.32,1.7-.38,.67-.06,1.24-.02,1.7,.14,.46,.16,.82,.38,1.06,.67,.24,.29,.34,.62,.31,1.01-.03,.38-.19,.77-.48,1.15-.26,.32-.58,.64-.96,.96-.38,.32-.79,.62-1.22,.89-.43,.27-.86,.51-1.27,.72-.42,.21-.78,.36-1.1,.46-.48,.13-.78,.07-.91-.17-.13-.24-.11-.44,.05-.6,.22-.26,.33-.52,.31-.79-.02-.27-.11-.48-.29-.62s-.39-.21-.65-.19c-.26,.02-.5,.17-.72,.46-.13,.16-.22,.29-.29,.38-.06,.1-.15,.24-.26,.43-.11,.19-.27,.47-.48,.84-.21,.37-.52,.9-.94,1.61,.26,.83,.53,1.71,.82,2.64,.29,.93,.59,1.85,.91,2.76,.32,.91,.66,1.8,1.03,2.66,.37,.86,.76,1.65,1.18,2.35,.29,.58,.71,1.02,1.27,1.34,.56,.32,1.26,.3,2.09-.05,.29-.13,.45-.08,.48,.14,.03,.22-.03,.38-.19,.48-.29,.16-.63,.32-1.03,.48-.4,.16-.82,.3-1.25,.43s-.83,.24-1.2,.34c-.37,.1-.66,.16-.89,.19-1.02,.19-1.92,.23-2.69,.12-.77-.11-1.34-.5-1.73-1.18-.7-1.12-1.25-2.2-1.63-3.24-.38-1.04-.77-2.25-1.15-3.62-.8,1.34-1.5,2.58-2.09,3.72-.59,1.14-1.22,2.07-1.9,2.81-.51,.54-1.08,.98-1.7,1.32s-1.22,.54-1.8,.6c-1.02,.1-1.7-.18-2.04-.82-.34-.64-.3-1.42,.12-2.35,.1-.26,.27-.54,.53-.86,.26-.32,.56-.65,.91-.98,.35-.34,.74-.65,1.15-.94,.42-.29,.83-.53,1.25-.72,.32-.13,.56-.18,.72-.14,.16,.03,.27,.1,.34,.19,.06,.1,.09,.21,.07,.34-.02,.13-.07,.24-.17,.34-.19,.19-.29,.42-.29,.67s.06,.48,.17,.67c.11,.19,.29,.3,.53,.34,.24,.03,.5-.1,.79-.38,.32-.29,.66-.84,1.01-1.66,.35-.82,1.01-2.02,1.97-3.62Z"/><path class="cls-1" d="M97.83,40.75c2.02-1.41,3.84-3.16,5.47-5.26s3-4.37,4.1-6.82c1.1-2.45,1.94-4.97,2.52-7.56s.83-5.1,.77-7.51c-.06-2.42-.47-4.66-1.22-6.72-.75-2.06-1.88-3.77-3.38-5.11-.38-.38-.53-.69-.43-.91,.1-.22,.33-.37,.7-.43,.37-.06,.78-.06,1.25,.02,.46,.08,.87,.23,1.22,.46,2.08,1.34,3.68,3.1,4.8,5.26s1.8,4.52,2.04,7.08c.24,2.56,.07,5.22-.5,7.99-.58,2.77-1.53,5.42-2.86,7.97-1.33,2.54-3.01,4.89-5.04,7.03-2.03,2.14-4.38,3.87-7.03,5.18-.42,.19-.86,.31-1.32,.36-.46,.05-.85,.04-1.15-.02-.3-.06-.47-.18-.5-.36-.03-.18,.16-.39,.58-.65Z"/></g><path class="cls-1" d="M29.13,37.55c-2.14,0-4.09-.39-5.85-1.18s-3.2-2-4.32-3.64c-1.53,1.83-3.07,3.09-4.61,3.79s-3.54,1.04-6.01,1.04-4.54-.74-6.06-2.21-2.29-3.5-2.29-6.08c0-2.78,.95-4.83,2.84-6.15s4.72-2.05,8.48-2.19l4.48-.14v-1.97c0-1.08-.35-1.88-1.04-2.39s-1.64-.77-2.85-.77c-2.19,0-4.57,.6-7.15,1.8l-2.32-4.73c2.95-1.58,6.25-2.37,9.89-2.37s6.22,1.02,8.02,3.07c1.03-1,2.22-1.75,3.57-2.26s2.96-.76,4.84-.76c3.45,0,6.18,1.07,8.18,3.22s3,5.04,3,8.68v3.47H22.99c.08,2.03,.68,3.62,1.8,4.76s2.7,1.71,4.73,1.71c3.06,0,6.03-.69,8.91-2.06v5.53c-1.23,.61-2.57,1.07-4.01,1.38s-3.2,.47-5.3,.47Zm-13.34-12.61l-2.65,.09c-1.94,.06-3.39,.43-4.36,1.11s-1.45,1.73-1.45,3.15c0,2.02,1.09,3.02,3.28,3.02,1.58,0,2.84-.48,3.77-1.43s1.41-2.22,1.41-3.8v-2.16Zm12.82-9.47c-3.39,0-5.22,1.84-5.48,5.53h10.08c-.03-1.75-.46-3.11-1.29-4.08s-1.93-1.45-3.3-1.45Z"/></g></g></svg>