<svg id="Layer_1" data-name="Layer 1" xmlns="http://www.w3.org/2000/svg" width="554.4" height="368.1" viewBox="0 0 554.4 368.1">
  <title>fCC-campFire-logo</title>
  <path id="black-fire" d="M234.7,35.3s45.3,42.6,21.6,80.6c0,0-37.4,46.7-54.8,106.6,0,0-8.5,46.1,14.9,74.7,0,0,22.5,32.2,67.3,34.9L356.6,320s46.9-23.1,53-70.9c0,0,7.6-54.4-6.7-78.4,0,0-24.1-52.7-59-63,0,0,13,35.7,7.9,50.2-1.7,4.8-10.7.5-17.1-.6,0,0-2.4,2.1-11.5-43.5C323.2,113.8,314.1,28.9,234.7,35.3Z" transform="translate(-22.8 -15.9)" fill="#676767"/>
  <path id="white-fire" d="M315.2,206.7c-5.2-16.2-4.4-45.4-50.9-45.1,0,0,26.1,24.5,12.4,46.3,0,0-19.9,28.7-29.8,63.2,0,0-6.5,24.5,7,40.9a52.8,52.8,0,0,0,38.6,20.1l41.9-7s27-11.8,30.4-40.7c0,0,2.6-22.8-4.4-41.3,0,0-13.2-33.9-33.3-39.9,0,0,11.4,30.6,2.5,29.5-3.7-.5-8.2-1.7-10.6-7.2S316.3,210.2,315.2,206.7Z" transform="translate(-22.8 -15.9)" fill="#fff"/>
  <path id="left-parenth" d="M120.6,21.9C33.2,72.1-29,257,112.8,378.1" transform="translate(-22.8 -15.9)" fill="none" stroke="#676767" strokeLinecap="round" strokeMiterlimit="10" stroke-width="24"/>
  <path id="right-parenth" d="M481.8,21.9c87.5,50.2,145.6,235.1,3.8,356.2" transform="translate(-22.8 -15.9)" fill="none" stroke="#676767" strokeLinecap="round" strokeMiterlimit="10" stroke-width="24"/>
  <line id="underline" x1="138.9" y1="343" x2="414.4" y2="343" fill="none" stroke="#676767" strokeLinecap="round" strokeMiterlimit="10" stroke-width="34"/>
</svg>
